<?xml version="1.0" encoding="UTF-8" standalone="no"?>
<!DOCTYPE svg PUBLIC "-//W3C//DTD SVG 1.1//EN"
 "http://www.w3.org/Graphics/SVG/1.1/DTD/svg11.dtd">
<!-- Generated by graphviz version 2.30.1 (20180420.1509)
 -->
<!-- Title: pipeline_dag_20230523_173515 Pages: 1 -->
<svg width="1018pt" height="1797pt"
 viewBox="0.00 0.00 1018.00 1796.60" xmlns="http://www.w3.org/2000/svg" xmlns:xlink="http://www.w3.org/1999/xlink">
<g id="graph0" class="graph" transform="scale(1 1) rotate(0) translate(4 1792.6)">
<title>pipeline_dag_20230523_173515</title>
<polygon fill="white" stroke="white" points="-4,5 -4,-1792.6 1015,-1792.6 1015,5 -4,5"/>
<!-- p0 -->
<g id="node1" class="node"><title>p0</title>
<ellipse fill="black" stroke="black" cx="415" cy="-1770" rx="3.6" ry="3.6"/>
<text text-anchor="middle" x="373.4" y="-1777.4" font-family="Times,serif" font-size="14.00">Channel.from</text>
</g>
<!-- p1 -->
<g id="node2" class="node"><title>p1</title>
<ellipse fill="none" stroke="black" cx="415" cy="-1724" rx="3.25" ry="3.5"/>
<text text-anchor="middle" x="389" y="-1731.3" font-family="Times,serif" font-size="14.00">splitCsv</text>
</g>
<!-- p0&#45;&gt;p1 -->
<g id="edge1" class="edge"><title>p0&#45;&gt;p1</title>
<path fill="none" stroke="black" d="M415,-1766.38C415,-1760.86 415,-1747.74 415,-1737.74"/>
<polygon fill="black" stroke="black" points="418.5,-1737.55 415,-1727.55 411.5,-1737.55 418.5,-1737.55"/>
</g>
<!-- p2 -->
<g id="node3" class="node"><title>p2</title>
<ellipse fill="none" stroke="black" cx="415" cy="-1678" rx="3.25" ry="3.5"/>
<text text-anchor="middle" x="399" y="-1685.3" font-family="Times,serif" font-size="14.00">map</text>
</g>
<!-- p1&#45;&gt;p2 -->
<g id="edge2" class="edge"><title>p1&#45;&gt;p2</title>
<path fill="none" stroke="black" d="M415,-1720.38C415,-1714.86 415,-1701.74 415,-1691.74"/>
<polygon fill="black" stroke="black" points="418.5,-1691.55 415,-1681.55 411.5,-1691.55 418.5,-1691.55"/>
</g>
<!-- p3 -->
<g id="node4" class="node"><title>p3</title>
<ellipse fill="none" stroke="black" cx="457" cy="-1614" rx="3.25" ry="3.5"/>
<text text-anchor="middle" x="466" y="-1621.3" font-family="Times,serif" font-size="14.00">map</text>
</g>
<!-- p2&#45;&gt;p3 -->
<g id="edge3" class="edge"><title>p2&#45;&gt;p3</title>
<path fill="none" stroke="black" d="M416.595,-1674.65C421.949,-1666.74 439.506,-1640.83 449.628,-1625.88"/>
<polygon fill="black" stroke="black" points="452.692,-1627.6 455.403,-1617.36 446.897,-1623.67 452.692,-1627.6"/>
<text text-anchor="middle" x="462.5" y="-1644.3" font-family="Times,serif" font-size="14.00">samples</text>
</g>
<!-- p4 -->
<g id="node5" class="node"><title>p4</title>
<ellipse fill="none" stroke="black" cx="413" cy="-1564" rx="3.25" ry="3.5"/>
<text text-anchor="middle" x="398.5" y="-1571.3" font-family="Times,serif" font-size="14.00">join</text>
</g>
<!-- p2&#45;&gt;p4 -->
<g id="edge5" class="edge"><title>p2&#45;&gt;p4</title>
<path fill="none" stroke="black" d="M413.623,-1674.31C408.994,-1664.96 394.53,-1632.92 399,-1606 400.688,-1595.83 404.582,-1584.8 407.836,-1576.74"/>
<polygon fill="black" stroke="black" points="411.068,-1578.08 411.813,-1567.51 404.64,-1575.31 411.068,-1578.08"/>
<text text-anchor="middle" x="421.5" y="-1610.3" font-family="Times,serif" font-size="14.00">samples</text>
</g>
<!-- p3&#45;&gt;p4 -->
<g id="edge4" class="edge"><title>p3&#45;&gt;p4</title>
<path fill="none" stroke="black" d="M455.109,-1610.94C449.455,-1604.77 432.412,-1586.18 421.821,-1574.62"/>
<polygon fill="black" stroke="black" points="424.172,-1572.01 414.835,-1567 419.012,-1576.74 424.172,-1572.01"/>
</g>
<!-- p5 -->
<g id="node6" class="node"><title>p5</title>
<ellipse fill="none" stroke="black" cx="464" cy="-1500" rx="3.25" ry="3.5"/>
<text text-anchor="middle" x="473" y="-1507.3" font-family="Times,serif" font-size="14.00">map</text>
</g>
<!-- p4&#45;&gt;p5 -->
<g id="edge6" class="edge"><title>p4&#45;&gt;p5</title>
<path fill="none" stroke="black" d="M414.697,-1560.94C420.988,-1553.29 443.253,-1526.22 455.6,-1511.21"/>
<polygon fill="black" stroke="black" points="458.595,-1513.08 462.244,-1503.13 453.189,-1508.63 458.595,-1513.08"/>
<text text-anchor="middle" x="466.5" y="-1530.3" font-family="Times,serif" font-size="14.00">samples</text>
</g>
<!-- p6 -->
<g id="node7" class="node"><title>p6</title>
<ellipse fill="none" stroke="black" cx="422" cy="-1436" rx="3.25" ry="3.5"/>
<text text-anchor="middle" x="407.5" y="-1443.3" font-family="Times,serif" font-size="14.00">join</text>
</g>
<!-- p4&#45;&gt;p6 -->
<g id="edge8" class="edge"><title>p4&#45;&gt;p6</title>
<path fill="none" stroke="black" d="M412.331,-1560.54C409.945,-1551.42 402.191,-1518.73 406,-1492 408.161,-1476.84 413.514,-1460.01 417.435,-1449.01"/>
<polygon fill="black" stroke="black" points="420.78,-1450.06 421.008,-1439.47 414.224,-1447.6 420.78,-1450.06"/>
<text text-anchor="middle" x="428.5" y="-1496.3" font-family="Times,serif" font-size="14.00">samples</text>
</g>
<!-- p5&#45;&gt;p6 -->
<g id="edge7" class="edge"><title>p5&#45;&gt;p6</title>
<path fill="none" stroke="black" d="M462.405,-1496.65C457.051,-1488.74 439.494,-1462.83 429.372,-1447.88"/>
<polygon fill="black" stroke="black" points="432.103,-1445.67 423.597,-1439.36 426.308,-1449.6 432.103,-1445.67"/>
<text text-anchor="middle" x="466.5" y="-1462.3" font-family="Times,serif" font-size="14.00">images</text>
</g>
<!-- p7 -->
<g id="node8" class="node"><title>p7</title>
<ellipse fill="none" stroke="black" cx="422" cy="-1376" rx="139.132" ry="18"/>
<text text-anchor="middle" x="422" y="-1372.3" font-family="Times,serif" font-size="14.00">ARB:IMG:LOAD_SAMPLE_INFO</text>
</g>
<!-- p6&#45;&gt;p7 -->
<g id="edge9" class="edge"><title>p6&#45;&gt;p7</title>
<path fill="none" stroke="black" d="M422,-1432.2C422,-1427.01 422,-1415.36 422,-1404.1"/>
<polygon fill="black" stroke="black" points="425.5,-1404.06 422,-1394.06 418.5,-1404.06 425.5,-1404.06"/>
</g>
<!-- p8 -->
<g id="node9" class="node"><title>p8</title>
<ellipse fill="none" stroke="black" cx="530" cy="-1302" rx="124.209" ry="18"/>
<text text-anchor="middle" x="530" y="-1298.3" font-family="Times,serif" font-size="14.00">ARB:IMG:GET_IMAGE_SIZE</text>
</g>
<!-- p7&#45;&gt;p8 -->
<g id="edge10" class="edge"><title>p7&#45;&gt;p8</title>
<path fill="none" stroke="black" d="M447.321,-1358.12C461.945,-1348.37 480.523,-1335.98 496.362,-1325.43"/>
<polygon fill="black" stroke="black" points="498.458,-1328.23 504.837,-1319.78 494.575,-1322.41 498.458,-1328.23"/>
</g>
<!-- p17 -->
<g id="node10" class="node"><title>p17</title>
<ellipse fill="none" stroke="black" cx="183" cy="-928" rx="3.25" ry="3.5"/>
<text text-anchor="middle" x="168.5" y="-935.3" font-family="Times,serif" font-size="14.00">join</text>
</g>
<!-- p7&#45;&gt;p17 -->
<g id="edge11" class="edge"><title>p7&#45;&gt;p17</title>
<path fill="none" stroke="black" d="M305.01,-1366.24C180.121,-1355.28 0,-1334.08 0,-1303 0,-1303 0,-1303 0,-987 0,-951.359 127.729,-934.788 169.765,-930.299"/>
<polygon fill="black" stroke="black" points="170.225,-933.771 179.824,-929.287 169.523,-926.806 170.225,-933.771"/>
</g>
<!-- p9 -->
<g id="node11" class="node"><title>p9</title>
<ellipse fill="none" stroke="black" cx="392" cy="-1242" rx="3.25" ry="3.5"/>
<text text-anchor="middle" x="377.5" y="-1249.3" font-family="Times,serif" font-size="14.00">join</text>
</g>
<!-- p7&#45;&gt;p9 -->
<g id="edge13" class="edge"><title>p7&#45;&gt;p9</title>
<path fill="none" stroke="black" d="M412.204,-1357.76C406.712,-1347.2 400.317,-1333.23 397,-1320 391.505,-1298.09 391.08,-1271.64 391.429,-1256.13"/>
<polygon fill="black" stroke="black" points="394.943,-1255.84 391.828,-1245.71 387.948,-1255.57 394.943,-1255.84"/>
</g>
<!-- p28 -->
<g id="node29" class="node"><title>p28</title>
<ellipse fill="none" stroke="black" cx="658" cy="-406" rx="3.25" ry="3.5"/>
<text text-anchor="middle" x="643.5" y="-413.3" font-family="Times,serif" font-size="14.00">join</text>
</g>
<!-- p7&#45;&gt;p28 -->
<g id="edge41" class="edge"><title>p7&#45;&gt;p28</title>
<path fill="none" stroke="black" d="M551.877,-1369.56C705.897,-1361.33 942,-1342.3 942,-1303 942,-1303 942,-1303 942,-474 942,-417.602 727.163,-408.625 671.199,-407.244"/>
<polygon fill="black" stroke="black" points="671.259,-403.744 661.189,-407.04 671.116,-410.743 671.259,-403.744"/>
</g>
<!-- p8&#45;&gt;p9 -->
<g id="edge12" class="edge"><title>p8&#45;&gt;p9</title>
<path fill="none" stroke="black" d="M491.559,-1284.84C462.235,-1272.52 423.684,-1256.32 404.281,-1248.16"/>
<polygon fill="black" stroke="black" points="405.503,-1244.88 394.928,-1244.23 402.791,-1251.33 405.503,-1244.88"/>
</g>
<!-- p11 -->
<g id="node13" class="node"><title>p11</title>
<ellipse fill="none" stroke="black" cx="461" cy="-1122" rx="3.25" ry="3.5"/>
<text text-anchor="middle" x="446.5" y="-1129.3" font-family="Times,serif" font-size="14.00">join</text>
</g>
<!-- p8&#45;&gt;p11 -->
<g id="edge16" class="edge"><title>p8&#45;&gt;p11</title>
<path fill="none" stroke="black" d="M531.463,-1283.73C532.967,-1256.45 532.603,-1202.54 511,-1164 502.182,-1148.27 484.74,-1136.13 472.971,-1129.28"/>
<polygon fill="black" stroke="black" points="474.354,-1126.05 463.892,-1124.38 471.029,-1132.21 474.354,-1126.05"/>
</g>
<!-- p18 -->
<g id="node20" class="node"><title>p18</title>
<ellipse fill="none" stroke="black" cx="183" cy="-868" rx="3.25" ry="3.5"/>
<text text-anchor="middle" x="168.5" y="-875.3" font-family="Times,serif" font-size="14.00">join</text>
</g>
<!-- p17&#45;&gt;p18 -->
<g id="edge25" class="edge"><title>p17&#45;&gt;p18</title>
<path fill="none" stroke="black" d="M183,-924.203C183,-916.649 183,-895.48 183,-881.66"/>
<polygon fill="black" stroke="black" points="186.5,-881.636 183,-871.636 179.5,-881.636 186.5,-881.636"/>
</g>
<!-- p10 -->
<g id="node12" class="node"><title>p10</title>
<ellipse fill="none" stroke="black" cx="392" cy="-1182" rx="110.235" ry="18"/>
<text text-anchor="middle" x="392" y="-1178.3" font-family="Times,serif" font-size="14.00">ARB:IMG:EXTRACT_ROI</text>
</g>
<!-- p9&#45;&gt;p10 -->
<g id="edge14" class="edge"><title>p9&#45;&gt;p10</title>
<path fill="none" stroke="black" d="M392,-1238.2C392,-1233.01 392,-1221.36 392,-1210.1"/>
<polygon fill="black" stroke="black" points="395.5,-1210.06 392,-1200.06 388.5,-1210.06 395.5,-1210.06"/>
</g>
<!-- p10&#45;&gt;p11 -->
<g id="edge15" class="edge"><title>p10&#45;&gt;p11</title>
<path fill="none" stroke="black" d="M411.958,-1164.22C424.746,-1153.47 440.798,-1139.98 450.981,-1131.42"/>
<polygon fill="black" stroke="black" points="453.245,-1134.09 458.647,-1124.98 448.74,-1128.73 453.245,-1134.09"/>
</g>
<!-- p12 -->
<g id="node14" class="node"><title>p12</title>
<ellipse fill="none" stroke="black" cx="461" cy="-1062" rx="154.529" ry="18"/>
<text text-anchor="middle" x="461" y="-1058.3" font-family="Times,serif" font-size="14.00">ARB:IMG:STAIN_NORMALIZATION</text>
</g>
<!-- p11&#45;&gt;p12 -->
<g id="edge17" class="edge"><title>p11&#45;&gt;p12</title>
<path fill="none" stroke="black" d="M461,-1118.2C461,-1113.01 461,-1101.36 461,-1090.1"/>
<polygon fill="black" stroke="black" points="464.5,-1090.06 461,-1080.06 457.5,-1090.06 464.5,-1090.06"/>
</g>
<!-- p13 -->
<g id="node15" class="node"><title>p13</title>
<ellipse fill="none" stroke="black" cx="461" cy="-988" rx="160.304" ry="18"/>
<text text-anchor="middle" x="461" y="-984.3" font-family="Times,serif" font-size="14.00">ARB:IMG:CONVERT_TO_TILED_TIFF</text>
</g>
<!-- p12&#45;&gt;p13 -->
<g id="edge18" class="edge"><title>p12&#45;&gt;p13</title>
<path fill="none" stroke="black" d="M461,-1043.94C461,-1035.81 461,-1025.88 461,-1016.7"/>
<polygon fill="black" stroke="black" points="464.5,-1016.44 461,-1006.44 457.5,-1016.44 464.5,-1016.44"/>
</g>
<!-- p13&#45;&gt;p17 -->
<g id="edge19" class="edge"><title>p13&#45;&gt;p17</title>
<path fill="none" stroke="black" d="M358.426,-974.12C322.851,-968.627 282.896,-961.302 247,-952 228.638,-947.242 208.117,-939.397 195.379,-934.215"/>
<polygon fill="black" stroke="black" points="196.451,-930.87 185.875,-930.248 193.755,-937.33 196.451,-930.87"/>
</g>
<!-- p15 -->
<g id="node16" class="node"><title>p15</title>
<ellipse fill="none" stroke="black" cx="512" cy="-928" rx="3.25" ry="3.5"/>
<text text-anchor="middle" x="497.5" y="-935.3" font-family="Times,serif" font-size="14.00">join</text>
</g>
<!-- p13&#45;&gt;p15 -->
<g id="edge20" class="edge"><title>p13&#45;&gt;p15</title>
<path fill="none" stroke="black" d="M469.81,-969.912C478.618,-958.684 491.552,-944.574 501.033,-936.199"/>
<polygon fill="black" stroke="black" points="503.256,-938.905 509.082,-930.056 499.009,-933.341 503.256,-938.905"/>
</g>
<!-- p13&#45;&gt;p15 -->
<g id="edge21" class="edge"><title>p13&#45;&gt;p15</title>
<path fill="none" stroke="black" d="M482.242,-969.912C491.476,-960.432 501.383,-948.898 507.402,-940.495"/>
<polygon fill="black" stroke="black" points="510.541,-942.065 512.69,-931.691 504.541,-938.461 510.541,-942.065"/>
</g>
<!-- p14 -->
<g id="node17" class="node"><title>p14</title>
<ellipse fill="black" stroke="black" cx="410" cy="-928" rx="1.8" ry="1.8"/>
</g>
<!-- p13&#45;&gt;p14 -->
<g id="edge22" class="edge"><title>p13&#45;&gt;p14</title>
<path fill="none" stroke="black" d="M445.974,-969.912C436.719,-959.386 425.235,-946.326 417.768,-937.835"/>
<polygon fill="black" stroke="black" points="420.161,-935.255 410.929,-930.056 414.904,-939.877 420.161,-935.255"/>
</g>
<!-- p13&#45;&gt;p18 -->
<g id="edge26" class="edge"><title>p13&#45;&gt;p18</title>
<path fill="none" stroke="black" d="M393.711,-971.578C337.388,-956.365 256.853,-929.059 197,-886 194.502,-884.203 192.19,-881.855 190.195,-879.48"/>
<polygon fill="black" stroke="black" points="193.01,-877.399 184.344,-871.303 187.317,-881.472 193.01,-877.399"/>
</g>
<!-- p21 -->
<g id="node19" class="node"><title>p21</title>
<ellipse fill="none" stroke="black" cx="679" cy="-780" rx="3.25" ry="3.5"/>
<text text-anchor="middle" x="664.5" y="-787.3" font-family="Times,serif" font-size="14.00">join</text>
</g>
<!-- p13&#45;&gt;p21 -->
<g id="edge30" class="edge"><title>p13&#45;&gt;p21</title>
<path fill="none" stroke="black" d="M596.727,-978.312C660.488,-966.596 731.097,-940.968 771,-886 800.543,-845.303 721.758,-801.599 690.84,-786.498"/>
<polygon fill="black" stroke="black" points="692.198,-783.269 681.66,-782.176 689.217,-789.602 692.198,-783.269"/>
</g>
<!-- p23 -->
<g id="node24" class="node"><title>p23</title>
<ellipse fill="none" stroke="black" cx="716" cy="-646" rx="3.25" ry="3.5"/>
<text text-anchor="middle" x="701.5" y="-653.3" font-family="Times,serif" font-size="14.00">join</text>
</g>
<!-- p13&#45;&gt;p23 -->
<g id="edge33" class="edge"><title>p13&#45;&gt;p23</title>
<path fill="none" stroke="black" d="M594.793,-978.088C699.68,-969.233 828,-953.412 828,-929 828,-929 828,-929 828,-705 828,-661.129 759.4,-650.402 729.576,-647.811"/>
<polygon fill="black" stroke="black" points="729.444,-644.295 719.231,-647.115 728.973,-651.279 729.444,-644.295"/>
</g>
<!-- p26 -->
<g id="node26" class="node"><title>p26</title>
<ellipse fill="none" stroke="black" cx="733" cy="-512" rx="3.25" ry="3.5"/>
<text text-anchor="middle" x="718.5" y="-519.3" font-family="Times,serif" font-size="14.00">join</text>
</g>
<!-- p13&#45;&gt;p26 -->
<g id="edge37" class="edge"><title>p13&#45;&gt;p26</title>
<path fill="none" stroke="black" d="M603.218,-979.7C719.915,-971.73 866,-956.302 866,-929 866,-929 866,-929 866,-585 866,-530.985 780.115,-517.287 746.377,-513.99"/>
<polygon fill="black" stroke="black" points="746.537,-510.492 736.288,-513.174 745.973,-517.469 746.537,-510.492"/>
</g>
<!-- p29 -->
<g id="node30" class="node"><title>p29</title>
<ellipse fill="none" stroke="black" cx="652" cy="-360" rx="3.25" ry="3.5"/>
<text text-anchor="middle" x="637.5" y="-367.3" font-family="Times,serif" font-size="14.00">join</text>
</g>
<!-- p13&#45;&gt;p29 -->
<g id="edge43" class="edge"><title>p13&#45;&gt;p29</title>
<path fill="none" stroke="black" d="M463.792,-969.859C469.34,-937.473 482.475,-868.845 497,-850 525.673,-812.799 565.33,-838.568 589,-798 644.785,-702.389 566,-660.695 566,-550 566,-550 566,-550 566,-405 566,-372.723 614.604,-364.109 638.733,-361.821"/>
<polygon fill="black" stroke="black" points="639.007,-365.311 648.734,-361.11 638.511,-358.328 639.007,-365.311"/>
</g>
<!-- p31 -->
<g id="node33" class="node"><title>p31</title>
<ellipse fill="none" stroke="black" cx="444" cy="-928" rx="3.25" ry="3.5"/>
<text text-anchor="middle" x="429.5" y="-935.3" font-family="Times,serif" font-size="14.00">join</text>
</g>
<!-- p13&#45;&gt;p31 -->
<g id="edge46" class="edge"><title>p13&#45;&gt;p31</title>
<path fill="none" stroke="black" d="M449.775,-969.912C446.169,-960.614 443.074,-949.339 441.925,-940.982"/>
<polygon fill="black" stroke="black" points="445.425,-940.956 441.927,-930.955 438.425,-940.954 445.425,-940.956"/>
</g>
<!-- p13&#45;&gt;p31 -->
<g id="edge47" class="edge"><title>p13&#45;&gt;p31</title>
<path fill="none" stroke="black" d="M462.207,-969.912C460.203,-959.804 456.224,-947.359 452.114,-938.867"/>
<polygon fill="black" stroke="black" points="454.966,-936.831 446.602,-930.327 449.085,-940.627 454.966,-936.831"/>
</g>
<!-- p35 -->
<g id="node37" class="node"><title>p35</title>
<ellipse fill="none" stroke="black" cx="68" cy="-780" rx="3.25" ry="3.5"/>
<text text-anchor="middle" x="53.5" y="-787.3" font-family="Times,serif" font-size="14.00">join</text>
</g>
<!-- p13&#45;&gt;p35 -->
<g id="edge52" class="edge"><title>p13&#45;&gt;p35</title>
<path fill="none" stroke="black" d="M345.378,-975.462C276.74,-966.663 197.827,-952.523 170,-932 118.546,-894.052 84.7645,-821.915 72.819,-793.219"/>
<polygon fill="black" stroke="black" points="75.9285,-791.568 68.9639,-783.584 69.4294,-794.169 75.9285,-791.568"/>
</g>
<!-- p38 -->
<g id="node40" class="node"><title>p38</title>
<ellipse fill="none" stroke="black" cx="255" cy="-586" rx="3.25" ry="3.5"/>
<text text-anchor="middle" x="240.5" y="-593.3" font-family="Times,serif" font-size="14.00">join</text>
</g>
<!-- p13&#45;&gt;p38 -->
<g id="edge57" class="edge"><title>p13&#45;&gt;p38</title>
<path fill="none" stroke="black" d="M313.086,-980.979C186.644,-973.78 25,-958.757 25,-929 25,-929 25,-929 25,-645 25,-600.015 192.517,-589.569 241.624,-587.474"/>
<polygon fill="black" stroke="black" points="241.887,-590.966 251.749,-587.093 241.624,-583.971 241.887,-590.966"/>
</g>
<!-- p42 -->
<g id="node43" class="node"><title>p42</title>
<ellipse fill="none" stroke="black" cx="835" cy="-194" rx="3.25" ry="3.5"/>
<text text-anchor="middle" x="820.5" y="-201.3" font-family="Times,serif" font-size="14.00">join</text>
</g>
<!-- p13&#45;&gt;p42 -->
<g id="edge62" class="edge"><title>p13&#45;&gt;p42</title>
<path fill="none" stroke="black" d="M609.745,-981.279C738.441,-974.267 904,-959.348 904,-929 904,-929 904,-929 904,-239 904,-212.88 868.415,-201.584 848.355,-197.291"/>
<polygon fill="black" stroke="black" points="848.795,-193.813 838.328,-195.453 847.533,-200.699 848.795,-193.813"/>
</g>
<!-- p16 -->
<g id="node18" class="node"><title>p16</title>
<ellipse fill="none" stroke="black" cx="634" cy="-868" rx="128.058" ry="18"/>
<text text-anchor="middle" x="634" y="-864.3" font-family="Times,serif" font-size="14.00">ARB:IMG:GET_PIXEL_MASK</text>
</g>
<!-- p15&#45;&gt;p16 -->
<g id="edge23" class="edge"><title>p15&#45;&gt;p16</title>
<path fill="none" stroke="black" d="M514.548,-925.789C524.316,-921.145 560.326,-904.025 590.278,-889.786"/>
<polygon fill="black" stroke="black" points="591.815,-892.931 599.343,-885.476 588.809,-886.609 591.815,-892.931"/>
</g>
<!-- p16&#45;&gt;p21 -->
<g id="edge24" class="edge"><title>p16&#45;&gt;p21</title>
<path fill="none" stroke="black" d="M642.891,-850.009C651.783,-833.014 665.22,-807.336 672.948,-792.565"/>
<polygon fill="black" stroke="black" points="676.192,-793.915 677.727,-783.432 669.99,-790.67 676.192,-793.915"/>
</g>
<!-- p22 -->
<g id="node22" class="node"><title>p22</title>
<ellipse fill="none" stroke="black" cx="679" cy="-706" rx="3.25" ry="3.5"/>
<text text-anchor="middle" x="664.5" y="-713.3" font-family="Times,serif" font-size="14.00">join</text>
</g>
<!-- p21&#45;&gt;p22 -->
<g id="edge31" class="edge"><title>p21&#45;&gt;p22</title>
<path fill="none" stroke="black" d="M679,-776.265C679,-767.133 679,-737.282 679,-719.892"/>
<polygon fill="black" stroke="black" points="682.5,-719.737 679,-709.737 675.5,-719.737 682.5,-719.737"/>
</g>
<!-- p19 -->
<g id="node21" class="node"><title>p19</title>
<ellipse fill="none" stroke="black" cx="180" cy="-780" rx="90.4879" ry="18"/>
<text text-anchor="middle" x="180" y="-776.3" font-family="Times,serif" font-size="14.00">ARB:IMG:TILE_WSI</text>
</g>
<!-- p18&#45;&gt;p19 -->
<g id="edge27" class="edge"><title>p18&#45;&gt;p19</title>
<path fill="none" stroke="black" d="M182.9,-864.139C182.599,-855.502 181.675,-829.011 180.95,-808.227"/>
<polygon fill="black" stroke="black" points="184.44,-807.876 180.593,-798.004 177.444,-808.12 184.44,-807.876"/>
</g>
<!-- p19&#45;&gt;p22 -->
<g id="edge28" class="edge"><title>p19&#45;&gt;p22</title>
<path fill="none" stroke="black" d="M243.879,-767.172C255.852,-765.231 268.284,-763.399 280,-762 394.574,-748.314 425.157,-762.826 539,-744 586.735,-736.106 641.82,-719.17 666.227,-711.249"/>
<polygon fill="black" stroke="black" points="667.594,-714.483 675.992,-708.023 665.399,-707.836 667.594,-714.483"/>
</g>
<!-- p20 -->
<g id="node23" class="node"><title>p20</title>
<ellipse fill="black" stroke="black" cx="460" cy="-706" rx="1.8" ry="1.8"/>
</g>
<!-- p19&#45;&gt;p20 -->
<g id="edge29" class="edge"><title>p19&#45;&gt;p20</title>
<path fill="none" stroke="black" d="M244.143,-767.175C320.979,-752.82 440.499,-729.804 449,-724 451.548,-722.261 453.641,-719.716 455.292,-717.123"/>
<polygon fill="black" stroke="black" points="458.592,-718.335 459.738,-707.802 452.274,-715.321 458.592,-718.335"/>
</g>
<!-- p27 -->
<g id="node28" class="node"><title>p27</title>
<ellipse fill="none" stroke="black" cx="658" cy="-452" rx="3.25" ry="3.5"/>
<text text-anchor="middle" x="643.5" y="-459.3" font-family="Times,serif" font-size="14.00">join</text>
</g>
<!-- p19&#45;&gt;p27 -->
<g id="edge39" class="edge"><title>p19&#45;&gt;p27</title>
<path fill="none" stroke="black" d="M244.727,-767.379C256.447,-765.451 268.573,-763.571 280,-762 335.924,-754.311 528,-763.45 528,-707 528,-707 528,-707 528,-548 528,-490.494 611.948,-464.064 644.925,-455.9"/>
<polygon fill="black" stroke="black" points="645.822,-459.285 654.786,-453.638 644.257,-452.462 645.822,-459.285"/>
</g>
<!-- p37 -->
<g id="node39" class="node"><title>p37</title>
<ellipse fill="none" stroke="black" cx="255" cy="-646" rx="3.25" ry="3.5"/>
<text text-anchor="middle" x="240.5" y="-653.3" font-family="Times,serif" font-size="14.00">join</text>
</g>
<!-- p19&#45;&gt;p37 -->
<g id="edge55" class="edge"><title>p19&#45;&gt;p37</title>
<path fill="none" stroke="black" d="M246.431,-767.705C257.636,-765.8 269.149,-763.844 280,-762 322.45,-754.788 443.311,-757.789 470,-724 524.375,-655.158 324.148,-647.796 268.806,-647.066"/>
<polygon fill="black" stroke="black" points="268.521,-643.564 258.495,-646.99 268.469,-650.564 268.521,-643.564"/>
</g>
<!-- p22&#45;&gt;p23 -->
<g id="edge32" class="edge"><title>p22&#45;&gt;p23</title>
<path fill="none" stroke="black" d="M680.59,-702.508C685.436,-694.911 700.23,-671.721 709.088,-657.834"/>
<polygon fill="black" stroke="black" points="712.19,-659.481 714.617,-649.168 706.288,-655.716 712.19,-659.481"/>
</g>
<!-- p24 -->
<g id="node25" class="node"><title>p24</title>
<ellipse fill="none" stroke="black" cx="716" cy="-586" rx="122.284" ry="18"/>
<text text-anchor="middle" x="716" y="-582.3" font-family="Times,serif" font-size="14.00">ARB:IMG:GET_TILE_MASK</text>
</g>
<!-- p23&#45;&gt;p24 -->
<g id="edge34" class="edge"><title>p23&#45;&gt;p24</title>
<path fill="none" stroke="black" d="M716,-642.203C716,-637.005 716,-625.361 716,-614.101"/>
<polygon fill="black" stroke="black" points="719.5,-614.064 716,-604.064 712.5,-614.064 719.5,-614.064"/>
</g>
<!-- p24&#45;&gt;p26 -->
<g id="edge35" class="edge"><title>p24&#45;&gt;p26</title>
<path fill="none" stroke="black" d="M720.029,-567.937C723.086,-554.989 727.222,-537.471 729.994,-525.731"/>
<polygon fill="black" stroke="black" points="733.459,-526.285 732.351,-515.748 726.647,-524.676 733.459,-526.285"/>
</g>
<!-- p25 -->
<g id="node27" class="node"><title>p25</title>
<ellipse fill="black" stroke="black" cx="708" cy="-512" rx="1.8" ry="1.8"/>
</g>
<!-- p24&#45;&gt;p25 -->
<g id="edge36" class="edge"><title>p24&#45;&gt;p25</title>
<path fill="none" stroke="black" d="M714.104,-567.937C712.597,-554.37 710.532,-535.787 709.232,-524.089"/>
<polygon fill="black" stroke="black" points="712.677,-523.402 708.094,-513.849 705.72,-524.175 712.677,-523.402"/>
</g>
<!-- p26&#45;&gt;p27 -->
<g id="edge38" class="edge"><title>p26&#45;&gt;p27</title>
<path fill="none" stroke="black" d="M731.396,-508.86C728.802,-505.48 723.427,-498.795 718,-494 702.364,-480.185 681.891,-467.109 669.355,-459.583"/>
<polygon fill="black" stroke="black" points="670.84,-456.396 660.441,-454.369 667.306,-462.439 670.84,-456.396"/>
</g>
<!-- p27&#45;&gt;p28 -->
<g id="edge40" class="edge"><title>p27&#45;&gt;p28</title>
<path fill="none" stroke="black" d="M658,-448.379C658,-442.864 658,-429.742 658,-419.742"/>
<polygon fill="black" stroke="black" points="661.5,-419.552 658,-409.552 654.5,-419.552 661.5,-419.552"/>
</g>
<!-- p28&#45;&gt;p29 -->
<g id="edge42" class="edge"><title>p28&#45;&gt;p29</title>
<path fill="none" stroke="black" d="M657.643,-402.379C656.891,-396.864 655.101,-383.742 653.738,-373.742"/>
<polygon fill="black" stroke="black" points="657.167,-372.987 652.348,-363.552 650.231,-373.933 657.167,-372.987"/>
</g>
<!-- p30 -->
<g id="node31" class="node"><title>p30</title>
<ellipse fill="none" stroke="black" cx="652" cy="-300" rx="167.053" ry="18"/>
<text text-anchor="middle" x="652" y="-296.3" font-family="Times,serif" font-size="14.00">ARB:IMG:GET_INCEPTION_FEATURES</text>
</g>
<!-- p29&#45;&gt;p30 -->
<g id="edge44" class="edge"><title>p29&#45;&gt;p30</title>
<path fill="none" stroke="black" d="M652,-356.203C652,-351.005 652,-339.361 652,-328.101"/>
<polygon fill="black" stroke="black" points="655.5,-328.064 652,-318.064 648.5,-328.064 655.5,-328.064"/>
</g>
<!-- p41 -->
<g id="node32" class="node"><title>p41</title>
<ellipse fill="none" stroke="black" cx="652" cy="-240" rx="3.25" ry="3.5"/>
<text text-anchor="middle" x="637.5" y="-247.3" font-family="Times,serif" font-size="14.00">join</text>
</g>
<!-- p30&#45;&gt;p41 -->
<g id="edge45" class="edge"><title>p30&#45;&gt;p41</title>
<path fill="none" stroke="black" d="M652,-281.912C652,-272.965 652,-262.187 652,-253.94"/>
<polygon fill="black" stroke="black" points="655.5,-253.691 652,-243.691 648.5,-253.691 655.5,-253.691"/>
</g>
<!-- p41&#45;&gt;p42 -->
<g id="edge61" class="edge"><title>p41&#45;&gt;p42</title>
<path fill="none" stroke="black" d="M654.874,-238.309C674.076,-233.692 784.125,-207.232 822.11,-198.099"/>
<polygon fill="black" stroke="black" points="823.089,-201.464 831.994,-195.723 821.453,-194.658 823.089,-201.464"/>
</g>
<!-- p32 -->
<g id="node34" class="node"><title>p32</title>
<ellipse fill="none" stroke="black" cx="328" cy="-868" rx="122.284" ry="18"/>
<text text-anchor="middle" x="328" y="-864.3" font-family="Times,serif" font-size="14.00">ARB:IMG:INFER_STARDIST</text>
</g>
<!-- p31&#45;&gt;p32 -->
<g id="edge48" class="edge"><title>p31&#45;&gt;p32</title>
<path fill="none" stroke="black" d="M441.133,-925.566C431.29,-920.645 397.947,-903.974 369.99,-889.995"/>
<polygon fill="black" stroke="black" points="371.266,-886.72 360.756,-885.378 368.135,-892.981 371.266,-886.72"/>
</g>
<!-- p33 -->
<g id="node35" class="node"><title>p33</title>
<ellipse fill="none" stroke="black" cx="435" cy="-780" rx="145.38" ry="18"/>
<text text-anchor="middle" x="435" y="-776.3" font-family="Times,serif" font-size="14.00">ARB:IMG:COMPRESS_JSON_FILE</text>
</g>
<!-- p32&#45;&gt;p33 -->
<g id="edge49" class="edge"><title>p32&#45;&gt;p33</title>
<path fill="none" stroke="black" d="M348.885,-850.214C365.129,-837.158 387.86,-818.888 405.89,-804.397"/>
<polygon fill="black" stroke="black" points="408.2,-807.03 413.802,-798.037 403.815,-801.574 408.2,-807.03"/>
<text text-anchor="middle" x="412" y="-820.3" font-family="Times,serif" font-size="14.00">jsonout</text>
</g>
<!-- p32&#45;&gt;p35 -->
<g id="edge51" class="edge"><title>p32&#45;&gt;p35</title>
<path fill="none" stroke="black" d="M234.622,-856.396C185.145,-847.172 125.394,-829.981 80,-798 77.7924,-796.445 75.8509,-794.348 74.2083,-792.159"/>
<polygon fill="black" stroke="black" points="77.119,-790.205 69.0242,-783.369 71.0895,-793.761 77.119,-790.205"/>
<text text-anchor="middle" x="162" y="-820.3" font-family="Times,serif" font-size="14.00">jsonout</text>
</g>
<!-- p34 -->
<g id="node36" class="node"><title>p34</title>
<ellipse fill="black" stroke="black" cx="578" cy="-706" rx="1.8" ry="1.8"/>
</g>
<!-- p33&#45;&gt;p34 -->
<g id="edge50" class="edge"><title>p33&#45;&gt;p34</title>
<path fill="none" stroke="black" d="M498.65,-763.755C513.501,-758.713 528.816,-752.222 542,-744 553.844,-736.613 564.602,-724.519 571.211,-716.18"/>
<polygon fill="black" stroke="black" points="574.072,-718.198 577.252,-708.092 568.463,-714.01 574.072,-718.198"/>
</g>
<!-- p36 -->
<g id="node38" class="node"><title>p36</title>
<ellipse fill="none" stroke="black" cx="247" cy="-706" rx="193.524" ry="18"/>
<text text-anchor="middle" x="247" y="-702.3" font-family="Times,serif" font-size="14.00">ARB:IMG:COMPUTE_SEGMENTATION_DATA</text>
</g>
<!-- p35&#45;&gt;p36 -->
<g id="edge53" class="edge"><title>p35&#45;&gt;p36</title>
<path fill="none" stroke="black" d="M69.0458,-776.661C70.7953,-773.007 74.657,-765.954 80,-762 102.508,-745.342 130.329,-733.56 156.765,-725.298"/>
<polygon fill="black" stroke="black" points="157.849,-728.627 166.429,-722.411 155.846,-721.92 157.849,-728.627"/>
</g>
<!-- p36&#45;&gt;p37 -->
<g id="edge54" class="edge"><title>p36&#45;&gt;p37</title>
<path fill="none" stroke="black" d="M249.357,-687.912C250.606,-678.858 252.113,-667.93 253.256,-659.647"/>
<polygon fill="black" stroke="black" points="256.73,-660.075 254.629,-649.691 249.795,-659.119 256.73,-660.075"/>
</g>
<!-- p37&#45;&gt;p38 -->
<g id="edge56" class="edge"><title>p37&#45;&gt;p38</title>
<path fill="none" stroke="black" d="M255,-642.203C255,-634.649 255,-613.48 255,-599.66"/>
<polygon fill="black" stroke="black" points="258.5,-599.636 255,-589.636 251.5,-599.636 258.5,-599.636"/>
</g>
<!-- p39 -->
<g id="node41" class="node"><title>p39</title>
<ellipse fill="none" stroke="black" cx="260" cy="-512" rx="239.268" ry="18"/>
<text text-anchor="middle" x="260" y="-508.3" font-family="Times,serif" font-size="14.00">ARB:IMG:GENERATE_PERSPOT_SEGMENTATION_DATA</text>
</g>
<!-- p38&#45;&gt;p39 -->
<g id="edge58" class="edge"><title>p38&#45;&gt;p39</title>
<path fill="none" stroke="black" d="M255.19,-582.265C255.67,-575.354 256.974,-556.578 258.103,-540.316"/>
<polygon fill="black" stroke="black" points="261.608,-540.361 258.81,-530.143 254.625,-539.876 261.608,-540.361"/>
</g>
<!-- p40 -->
<g id="node42" class="node"><title>p40</title>
<ellipse fill="black" stroke="black" cx="290" cy="-452" rx="1.8" ry="1.8"/>
</g>
<!-- p39&#45;&gt;p40 -->
<g id="edge59" class="edge"><title>p39&#45;&gt;p40</title>
<path fill="none" stroke="black" d="M268.839,-493.912C274.041,-483.854 280.44,-471.482 284.831,-462.993"/>
<polygon fill="black" stroke="black" points="287.968,-464.546 289.454,-454.056 281.751,-461.33 287.968,-464.546"/>
</g>
<!-- p39&#45;&gt;p41 -->
<g id="edge60" class="edge"><title>p39&#45;&gt;p41</title>
<path fill="none" stroke="black" d="M260,-493.996C260,-482.436 260,-466.795 260,-453 260,-453 260,-453 260,-299 260,-259.898 569.163,-244.504 638.368,-241.548"/>
<polygon fill="black" stroke="black" points="638.763,-245.034 648.611,-241.128 638.476,-238.04 638.763,-245.034"/>
</g>
<!-- p43 -->
<g id="node44" class="node"><title>p43</title>
<ellipse fill="none" stroke="black" cx="835" cy="-134" rx="152.604" ry="18"/>
<text text-anchor="middle" x="835" y="-130.3" font-family="Times,serif" font-size="14.00">ARB:IMG:MERGE_IMAGING_DATA</text>
</g>
<!-- p42&#45;&gt;p43 -->
<g id="edge63" class="edge"><title>p42&#45;&gt;p43</title>
<path fill="none" stroke="black" d="M835,-190.203C835,-185.005 835,-173.361 835,-162.101"/>
<polygon fill="black" stroke="black" points="838.5,-162.064 835,-152.064 831.5,-162.064 838.5,-162.064"/>
</g>
<!-- p44 -->
<g id="node45" class="node"><title>p44</title>
<ellipse fill="none" stroke="black" cx="835" cy="-60" rx="175.227" ry="18"/>
<text text-anchor="middle" x="835" y="-56.3" font-family="Times,serif" font-size="14.00">ARB:IMG:CONVERT_CSV_TO_ANNDATA</text>
</g>
<!-- p43&#45;&gt;p44 -->
<g id="edge64" class="edge"><title>p43&#45;&gt;p44</title>
<path fill="none" stroke="black" d="M835,-115.937C835,-107.807 835,-97.8761 835,-88.7047"/>
<polygon fill="black" stroke="black" points="838.5,-88.4406 835,-78.4407 831.5,-88.4407 838.5,-88.4406"/>
</g>
<!-- p45 -->
<g id="node46" class="node"><title>p45</title>
<ellipse fill="black" stroke="black" cx="835" cy="-2" rx="1.8" ry="1.8"/>
</g>
<!-- p44&#45;&gt;p45 -->
<g id="edge65" class="edge"><title>p44&#45;&gt;p45</title>
<path fill="none" stroke="black" d="M835,-41.8939C835,-32.8876 835,-22.0999 835,-14.1727"/>
<polygon fill="black" stroke="black" points="838.5,-13.9957 835,-3.99575 831.5,-13.9958 838.5,-13.9957"/>
</g>
</g>
</svg>
